frame:0    pts:0       pts_time:0
lavfi.astats.Overall.Peak_level=-75.027959
frame:1    pts:1024    pts_time:0.0213333
lavfi.astats.Overall.Peak_level=-62.528041
frame:2    pts:2048    pts_time:0.0426667
lavfi.astats.Overall.Peak_level=-62.825324
frame:3    pts:3072    pts_time:0.064
lavfi.astats.Overall.Peak_level=-62.530554
frame:4    pts:4096    pts_time:0.0853333
lavfi.astats.Overall.Peak_level=-59.933857
frame:5    pts:5120    pts_time:0.106667
lavfi.astats.Overall.Peak_level=-59.874561
frame:6    pts:6144    pts_time:0.128
lavfi.astats.Overall.Peak_level=-61.658654
frame:7    pts:7168    pts_time:0.149333
lavfi.astats.Overall.Peak_level=-63.847184
frame:8    pts:8192    pts_time:0.170667
lavfi.astats.Overall.Peak_level=-63.805759
frame:9    pts:9216    pts_time:0.192
lavfi.astats.Overall.Peak_level=-62.455382
frame:10   pts:10240   pts_time:0.213333
lavfi.astats.Overall.Peak_level=-62.215749
frame:11   pts:11264   pts_time:0.234667
lavfi.astats.Overall.Peak_level=-61.926478
frame:12   pts:12288   pts_time:0.256
lavfi.astats.Overall.Peak_level=-63.316544
frame:13   pts:13312   pts_time:0.277333
lavfi.astats.Overall.Peak_level=-63.784065
frame:14   pts:14336   pts_time:0.298667
lavfi.astats.Overall.Peak_level=-65.617768
frame:15   pts:15360   pts_time:0.32
lavfi.astats.Overall.Peak_level=-62.516523
frame:16   pts:16384   pts_time:0.341333
lavfi.astats.Overall.Peak_level=-61.363414
frame:17   pts:17408   pts_time:0.362667
lavfi.astats.Overall.Peak_level=-61.001110
frame:18   pts:18432   pts_time:0.384
lavfi.astats.Overall.Peak_level=-61.670029
frame:19   pts:19456   pts_time:0.405333
lavfi.astats.Overall.Peak_level=-63.620358
frame:20   pts:20480   pts_time:0.426667
lavfi.astats.Overall.Peak_level=-62.811176
frame:21   pts:21504   pts_time:0.448
lavfi.astats.Overall.Peak_level=-63.352304
frame:22   pts:22528   pts_time:0.469333
lavfi.astats.Overall.Peak_level=-60.852390
frame:23   pts:23552   pts_time:0.490667
lavfi.astats.Overall.Peak_level=-63.414640
frame:24   pts:24576   pts_time:0.512
lavfi.astats.Overall.Peak_level=-61.734206
frame:25   pts:25600   pts_time:0.533333
lavfi.astats.Overall.Peak_level=-63.054250
frame:26   pts:26624   pts_time:0.554667
lavfi.astats.Overall.Peak_level=-61.653224
frame:27   pts:27648   pts_time:0.576
lavfi.astats.Overall.Peak_level=-63.062737
frame:28   pts:28672   pts_time:0.597333
lavfi.astats.Overall.Peak_level=-58.043047
frame:29   pts:29696   pts_time:0.618667
lavfi.astats.Overall.Peak_level=-59.657092
frame:30   pts:30720   pts_time:0.64
lavfi.astats.Overall.Peak_level=-57.659835
frame:31   pts:31744   pts_time:0.661333
lavfi.astats.Overall.Peak_level=-16.185718
frame:32   pts:32768   pts_time:0.682667
lavfi.astats.Overall.Peak_level=-27.824289
frame:33   pts:33792   pts_time:0.704
lavfi.astats.Overall.Peak_level=-33.856583
frame:34   pts:34816   pts_time:0.725333
lavfi.astats.Overall.Peak_level=-35.532200
frame:35   pts:35840   pts_time:0.746667
lavfi.astats.Overall.Peak_level=-37.239267
frame:36   pts:36864   pts_time:0.768
lavfi.astats.Overall.Peak_level=-48.459136
frame:37   pts:37888   pts_time:0.789333
lavfi.astats.Overall.Peak_level=-52.799659
frame:38   pts:38912   pts_time:0.810667
lavfi.astats.Overall.Peak_level=-47.000388
frame:39   pts:39936   pts_time:0.832
lavfi.astats.Overall.Peak_level=-46.825600
frame:40   pts:40960   pts_time:0.853333
lavfi.astats.Overall.Peak_level=-47.986794
frame:41   pts:41984   pts_time:0.874667
lavfi.astats.Overall.Peak_level=-58.367262
frame:42   pts:43008   pts_time:0.896
lavfi.astats.Overall.Peak_level=-54.819180
frame:43   pts:44032   pts_time:0.917333
lavfi.astats.Overall.Peak_level=-54.379058
frame:44   pts:45056   pts_time:0.938667
lavfi.astats.Overall.Peak_level=-52.066698
frame:45   pts:46080   pts_time:0.96
lavfi.astats.Overall.Peak_level=-42.361940
frame:46   pts:47104   pts_time:0.981333
lavfi.astats.Overall.Peak_level=-50.789037
frame:47   pts:48128   pts_time:1.002667
lavfi.astats.Overall.Peak_level=-53.771540
frame:48   pts:49152   pts_time:1.024
lavfi.astats.Overall.Peak_level=-53.225624
frame:49   pts:50176   pts_time:1.045333
lavfi.astats.Overall.Peak_level=-52.079295
frame:50   pts:51200   pts_time:1.066667
lavfi.astats.Overall.Peak_level=-54.496141
frame:51   pts:52224   pts_time:1.088
lavfi.astats.Overall.Peak_level=-56.603163
frame:52   pts:53248   pts_time:1.109333
lavfi.astats.Overall.Peak_level=-55.173380
frame:53   pts:54272   pts_time:1.130667
lavfi.astats.Overall.Peak_level=-61.787992
frame:54   pts:55296   pts_time:1.152
lavfi.astats.Overall.Peak_level=-62.474349
frame:55   pts:56320   pts_time:1.173333
lavfi.astats.Overall.Peak_level=-59.656892
frame:56   pts:57344   pts_time:1.194667
lavfi.astats.Overall.Peak_level=-59.025466
frame:57   pts:58368   pts_time:1.216
lavfi.astats.Overall.Peak_level=-61.902648
frame:58   pts:59392   pts_time:1.237333
lavfi.astats.Overall.Peak_level=-60.326111
frame:59   pts:60416   pts_time:1.258667
lavfi.astats.Overall.Peak_level=-60.685354
frame:60   pts:61440   pts_time:1.28
lavfi.astats.Overall.Peak_level=-62.380616
frame:61   pts:62464   pts_time:1.301333
lavfi.astats.Overall.Peak_level=-12.259733
frame:62   pts:63488   pts_time:1.322667
lavfi.astats.Overall.Peak_level=-19.273044
frame:63   pts:64512   pts_time:1.344
lavfi.astats.Overall.Peak_level=-24.052443
frame:64   pts:65536   pts_time:1.365333
lavfi.astats.Overall.Peak_level=-32.052036
frame:65   pts:66560   pts_time:1.386667
lavfi.astats.Overall.Peak_level=-33.087966
frame:66   pts:67584   pts_time:1.408
lavfi.astats.Overall.Peak_level=-36.831411
frame:67   pts:68608   pts_time:1.429333
lavfi.astats.Overall.Peak_level=-41.208921
frame:68   pts:69632   pts_time:1.450667
lavfi.astats.Overall.Peak_level=-41.673183
frame:69   pts:70656   pts_time:1.472
lavfi.astats.Overall.Peak_level=-40.784466
frame:70   pts:71680   pts_time:1.493333
lavfi.astats.Overall.Peak_level=-41.356261
frame:71   pts:72704   pts_time:1.514667
lavfi.astats.Overall.Peak_level=-45.687813
frame:72   pts:73728   pts_time:1.536
lavfi.astats.Overall.Peak_level=-46.365534
frame:73   pts:74752   pts_time:1.557333
lavfi.astats.Overall.Peak_level=-46.936061
frame:74   pts:75776   pts_time:1.578667
lavfi.astats.Overall.Peak_level=-44.281183
frame:75   pts:76800   pts_time:1.6
lavfi.astats.Overall.Peak_level=-42.522886
frame:76   pts:77824   pts_time:1.621333
lavfi.astats.Overall.Peak_level=-44.380834
frame:77   pts:78848   pts_time:1.642667
lavfi.astats.Overall.Peak_level=-45.208955
frame:78   pts:79872   pts_time:1.664
lavfi.astats.Overall.Peak_level=-45.519492
frame:79   pts:80896   pts_time:1.685333
lavfi.astats.Overall.Peak_level=-47.446034
frame:80   pts:81920   pts_time:1.706667
lavfi.astats.Overall.Peak_level=-45.264309
frame:81   pts:82944   pts_time:1.728
lavfi.astats.Overall.Peak_level=-46.983127
frame:82   pts:83968   pts_time:1.749333
lavfi.astats.Overall.Peak_level=-48.246180
frame:83   pts:84992   pts_time:1.770667
lavfi.astats.Overall.Peak_level=-48.380967
frame:84   pts:86016   pts_time:1.792
lavfi.astats.Overall.Peak_level=-51.988710
frame:85   pts:87040   pts_time:1.813333
lavfi.astats.Overall.Peak_level=-52.699157
frame:86   pts:88064   pts_time:1.834667
lavfi.astats.Overall.Peak_level=-50.337769
frame:87   pts:89088   pts_time:1.856
lavfi.astats.Overall.Peak_level=-50.643568
frame:88   pts:90112   pts_time:1.877333
lavfi.astats.Overall.Peak_level=-52.042966
frame:89   pts:91136   pts_time:1.898667
lavfi.astats.Overall.Peak_level=-55.803261
frame:90   pts:92160   pts_time:1.92
lavfi.astats.Overall.Peak_level=-52.832862
frame:91   pts:93184   pts_time:1.941333
lavfi.astats.Overall.Peak_level=-51.400336
frame:92   pts:94208   pts_time:1.962667
lavfi.astats.Overall.Peak_level=-54.006237
frame:93   pts:95232   pts_time:1.984
lavfi.astats.Overall.Peak_level=-51.874468
frame:94   pts:96256   pts_time:2.005333
lavfi.astats.Overall.Peak_level=-56.949523
frame:95   pts:97280   pts_time:2.026667
lavfi.astats.Overall.Peak_level=-56.255283
frame:96   pts:98304   pts_time:2.048
lavfi.astats.Overall.Peak_level=-60.109547
frame:97   pts:99328   pts_time:2.069333
lavfi.astats.Overall.Peak_level=-58.728208
frame:98   pts:100352  pts_time:2.090667
lavfi.astats.Overall.Peak_level=-54.205741
frame:99   pts:101376  pts_time:2.112
lavfi.astats.Overall.Peak_level=-55.228896
frame:100  pts:102400  pts_time:2.133333
lavfi.astats.Overall.Peak_level=-55.727199
frame:101  pts:103424  pts_time:2.154667
lavfi.astats.Overall.Peak_level=-61.221688
frame:102  pts:104448  pts_time:2.176
lavfi.astats.Overall.Peak_level=-59.087989
frame:103  pts:105472  pts_time:2.197333
lavfi.astats.Overall.Peak_level=-63.104038
